<?xml version="1.0" encoding="utf-8"?>
<!-- Generator: Adobe Illustrator 25.3.1, SVG Export Plug-In . SVG Version: 6.00 Build 0)  -->
<svg version="1.1" id="Слой_1" xmlns="http://www.w3.org/2000/svg" xmlns:xlink="http://www.w3.org/1999/xlink" x="0px" y="0px"
	 viewBox="0 0 1400 242" style="enable-background:new 0 0 1400 242;" xml:space="preserve">
<style type="text/css">
	.st0{fill:#FFFFFF;}
	.st1{fill:#E03E2D;}
</style>
<g>
	<path class="st0" d="M251.8,202.4V60h19.6L354,166.9h-5.3V60H373v142.5h-19.6L271,95.6h5.1v106.9h-24.3V202.4z"/>
	<path class="st0" d="M404.5,202.4V60h22.8l52.3,117.8h-6.3L525.8,60h22.6v142.5h-23.6V96.8h7.3l-47.9,105.7h-15.6L420.7,96.8h7.5
		v105.7h-23.7V202.4z"/>
	<path class="st0" d="M613.7,202.4v-121h-47.1V60h120.2v21.4h-47.1v121H613.7z"/>
	<path class="st0" d="M705.2,202.4V60h96v20.4h-70.9v39.4h66.3v20.6h-66.3v41.4h70.9v20.6L705.2,202.4L705.2,202.4z"/>
	<path class="st0" d="M893.9,204.5c-16,0-29.5-3-40.4-8.9s-19.1-14.3-24.7-25.3c-5.5-10.9-8.3-23.8-8.3-38.8c0-15.1,3-28.1,8.9-39.1
		s14.4-19.5,25.6-25.5c11.1-6,24.5-9,40.1-9c10.4,0,19.5,1.4,27.3,4.1c7.8,2.8,14.7,6.8,20.6,12l-8.7,20.2
		c-4.3-3.4-8.4-6.1-12.3-8.1c-3.9-2-7.9-3.5-12.1-4.3c-4.2-0.9-9-1.3-14.5-1.3c-15.6,0-27.4,4.4-35.5,13.2c-8,8.8-12,21.5-12,37.9
		s3.8,29,11.4,37.6c7.6,8.6,19.6,12.9,35.9,12.9c5.5,0,11.1-0.5,16.7-1.6c5.6-1.1,11.1-2.6,16.5-4.6l-4.8,10.9v-42.6h-33.3v-19h55
		v68.5c-6.6,3.4-14.5,6-23.6,7.9C912.3,203.5,903.1,204.5,893.9,204.5z"/>
	<path class="st0" d="M969.9,202.4v-28.1h28.3v28.1H969.9z"/>
	<path class="st1" d="M1060.4,204.5c-12.1,0-21.3-3.2-27.5-9.5s-9.3-15.8-9.3-28.5v-47.1H1004v-19h19.6V74.3l25.3-6.5v32.5h27.3v19
		h-27.3v45.5c0,7,1.3,11.9,4,14.8c2.7,2.8,6.4,4.2,11.1,4.2c2.6,0,4.7-0.2,6.6-0.6c1.8-0.4,3.6-0.9,5.4-1.6v20
		c-2.3,0.9-4.8,1.6-7.6,2.1C1065.6,204.2,1063,204.5,1060.4,204.5z"/>
	<path class="st1" d="M1141.7,204.5c-17.1,0-30.5-4.7-40.2-14.1c-9.7-9.4-14.5-22.4-14.5-38.8c0-10.6,2.1-19.9,6.3-27.9
		c4.2-7.9,10-14.1,17.5-18.6c7.5-4.4,16.2-6.7,26.2-6.7c9.8,0,18,2.1,24.7,6.3c6.6,4.2,11.6,10,15.1,17.6c3.4,7.5,5.2,16.4,5.2,26.5
		v6.7h-74.4V142h56.4l-3.4,2.8c0-9.4-2-16.6-6-21.6c-4-5-9.7-7.5-17.3-7.5c-8.4,0-14.8,3-19.3,8.9c-4.5,5.9-6.8,14.2-6.8,24.9v2.6
		c0,11,2.7,19.3,8.2,24.8s13.2,8.2,23.1,8.2c5.8,0,11.2-0.8,16.3-2.3c5.1-1.5,9.9-4.1,14.4-7.6l7.5,17c-4.8,3.9-10.6,6.9-17.4,9.1
		C1156.3,203.4,1149.2,204.5,1141.7,204.5z"/>
	<path class="st1" d="M1250,204.5c-10.5,0-19.7-2.2-27.6-6.5s-14-10.5-18.3-18.5s-6.5-17.5-6.5-28.6c0-11,2.2-20.5,6.6-28.3
		s10.5-13.8,18.3-18s17-6.3,27.5-6.3c6.7,0,13.3,1,19.7,3.1c6.4,2.1,11.6,5.1,15.7,9l-7.7,17.6c-3.6-3.4-7.7-5.9-12.2-7.6
		s-8.9-2.5-13.2-2.5c-9,0-16.1,2.8-21.1,8.5c-5.1,5.7-7.6,13.9-7.6,24.7s2.5,19.1,7.6,24.9c5.1,5.8,12.1,8.7,21.1,8.7
		c4.2,0,8.5-0.8,13-2.4c4.5-1.6,8.7-4.1,12.4-7.5l7.7,17.4c-4.2,3.9-9.5,6.9-15.9,9.1C1263.1,203.4,1256.6,204.5,1250,204.5z"/>
	<path class="st1" d="M1304.9,202.4V53.7h25.3v67.1h-2.8c3.1-7.3,7.9-12.8,14.3-16.7s13.9-5.8,22.2-5.8c12.1,0,21.1,3.4,27.1,10.2
		c5.9,6.8,8.9,17.1,8.9,31v62.8h-25.3v-61.6c0-7.9-1.5-13.7-4.5-17.3c-3-3.6-7.8-5.4-14.4-5.4c-7.7,0-13.8,2.4-18.5,7.2
		c-4.6,4.8-7,11.1-7,19.1v58L1304.9,202.4L1304.9,202.4z"/>
</g>
<g>
	<g>
		<path class="st1" d="M167.2,131.1L139.1,103c-3.5-3.1-3.9-8.5-0.8-12c3.1-3.5,8.5-3.9,12-0.8c0.3,0.3,0.6,0.6,0.9,0.9l34.1,34.1
			c3.2,3.3,3.2,8.6,0,11.9l-34.1,34.1c-3.5,3.1-8.9,2.7-12-0.8c-2.8-3.2-2.8-7.9-0.1-11.1C139.1,159.2,167.2,131.1,167.2,131.1z
			 M20.8,131.1l28.1,28.1c3,3.6,2.6,9-1,12c-3.2,2.7-7.9,2.7-11.1-0.1l-34-34c-3.2-3.3-3.2-8.6,0-11.9l34.1-34.1
			c3.5-3.1,8.9-2.7,12,0.8c2.8,3.2,2.8,7.9,0.1,11.1L20.8,131.1z M85.2,201.3c-1.3,4.5-6,7.1-10.5,5.8c-4.3-1.2-6.9-5.5-6-9.9
			l34-136.2c1-4.6,5.5-7.6,10.1-6.6s7.6,5.5,6.6,10.1c0,0.2-0.1,0.4-0.2,0.6C119.3,65.1,85.2,201.3,85.2,201.3z"/>
	</g>
</g>
</svg>
