<svg width="35" height="35" viewBox="0 0 35 35" fill="none" xmlns="http://www.w3.org/2000/svg">
<circle cx="17.5" cy="17.5" r="10.5" fill="#F7DF1E"/>
<path d="M18.5938 0H16.4062V4.375H18.5938V0Z" fill="#F7DF1E"/>
<path d="M5.89981 4.35236L4.35303 5.89914L7.44659 8.9927L8.99337 7.44592L5.89981 4.35236Z" fill="#F7DF1E"/>
<path d="M4.375 16.4062H0V18.5938H4.375V16.4062Z" fill="#F7DF1E"/>
<path d="M7.44659 26.0073L4.35303 29.1008L5.89981 30.6476L8.99337 27.554L7.44659 26.0073Z" fill="#F7DF1E"/>
<path d="M18.5938 30.625H16.4062V35H18.5938V30.625Z" fill="#F7DF1E"/>
<path d="M27.5546 26.0073L26.0078 27.5541L29.1014 30.6476L30.6482 29.1009L27.5546 26.0073Z" fill="#F7DF1E"/>
<path d="M35 16.4062H30.625V18.5938H35V16.4062Z" fill="#F7DF1E"/>
<path d="M29.1014 4.35239L26.0078 7.44595L27.5546 8.99273L30.6482 5.89917L29.1014 4.35239Z" fill="#F7DF1E"/>
</svg>
